Coordinates
version=1
nRows=32
nColumns=12
inDegrees=yes

Units are S.I. units (second, meters, Newtons, ...)
Angles are in degrees

endheader
time	SC_y	SC_z	SC_x	AC_y	AC_z	AC_x	GH_y	GH_z	GH_yy	EL_x	PS_y
       0.0              -45.17          31.24          73.88          44.21           8.07          4.003         -171.4          3.331          106.0          135.8          57.91
  0.008868              -45.17          31.24          73.88          44.21          8.067          3.999         -171.4           3.33          105.9          135.8          57.91
   0.01774              -45.16          31.24          73.88          44.21          8.063          3.996         -171.4          3.329          105.9          135.8          57.91
    0.0266              -45.16          31.24          73.87          44.21           8.06          3.992         -171.3          3.328          105.9          135.8          57.91
   0.03547              -45.16          31.24          73.87          44.21          8.056          3.988         -171.3          3.327          105.8          135.8          57.91
   0.04434              -45.16          31.24          73.87           44.2          8.052          3.984         -171.3          3.327          105.8          135.8           57.9
   0.05321              -45.15          31.24          73.86           44.2          8.047          3.979         -171.2          3.326          105.7          135.7           57.9
   0.06208              -45.15          31.24          73.86           44.2          8.043          3.974         -171.2          3.325          105.7          135.7           57.9
   0.07095              -45.15          31.24          73.86           44.2          8.038          3.969         -171.2          3.323          105.6          135.7           57.9
   0.07981              -45.14          31.25          73.85          44.19          8.032          3.964         -171.1          3.322          105.6          135.7           57.9
   0.08868              -45.14          31.25          73.85          44.19          8.026          3.958         -171.1          3.321          105.5          135.6          57.89
   0.09755              -45.14          31.25          73.84          44.19           8.02          3.951         -171.0           3.32          105.4          135.6          57.89
    0.1064              -45.13          31.25          73.84          44.19          8.013          3.944         -171.0          3.318          105.4          135.6          57.89
    0.1153              -45.13          31.25          73.83          44.18          8.006          3.937         -170.9          3.317          105.3          135.5          57.89
    0.1242              -45.12          31.25          73.82          44.18          7.998          3.929         -170.8          3.315          105.2          135.5          57.88
     0.133              -45.12          31.26          73.82          44.18           7.99           3.92         -170.8          3.313          105.1          135.5          57.88
    0.1419              -45.11          31.26          73.81          44.17          7.981          3.911         -170.7          3.311          105.0          135.4          57.88
    0.1508              -45.11          31.26           73.8          44.17           7.97            3.9         -170.6          3.309          104.9          135.4          57.87
    0.1596               -45.1          31.26          73.79          44.16          7.959          3.889         -170.5          3.306          104.8          135.3          57.87
    0.1685              -45.09          31.27          73.78          44.16          7.947          3.876         -170.4          3.304          104.7          135.3          57.87
    0.1774              -45.08          31.27          73.77          44.15          7.934          3.863         -170.3          3.301          104.5          135.2          57.86
    0.1862              -45.08          31.28          73.76          44.15           7.92          3.848         -170.2          3.297          104.4          135.1          57.86
    0.1951              -45.07          31.28          73.74          44.14          7.904          3.831         -170.1          3.294          104.2          135.1          57.85
     0.204              -45.05          31.28          73.73          44.13          7.886          3.813         -170.0           3.29          104.0          135.0          57.84
    0.2128              -45.04          31.29          73.71          44.12          7.866          3.792         -169.8          3.286          103.8          134.9          57.84
    0.2217              -45.03           31.3           73.7          44.11          7.844           3.77         -169.6          3.281          103.5          134.8          57.83
    0.2306              -45.01           31.3          73.67           44.1          7.819          3.744         -169.4          3.275          103.3          134.7          57.82
    0.2394               -45.0          31.31          73.65          44.09          7.791          3.715         -169.2          3.269          103.0          134.6          57.81
    0.2483              -44.98          31.32          73.63          44.07           7.76          3.683         -168.9          3.262          102.7          134.4           57.8
    0.2572              -44.95          31.33           73.6          44.06          7.724          3.646         -168.7          3.254          102.3          134.2          57.78
     0.266              -44.93          31.34          73.56          44.04          7.683          3.604         -168.3          3.245          101.8          134.1          57.77
    0.2749               -44.9          31.35          73.52          44.02          7.637          3.556         -168.0          3.235          101.3          133.8          57.75
